<svg width="12" height="17" viewBox="0 0 12 17" fill="none" xmlns="http://www.w3.org/2000/svg">
<path d="M10.8858 9.59821L1.74299 0.455357C1.63585 0.339285 1.49299 0.285713 1.3412 0.285713C1.26978 0.285713 1.18942 0.303571 1.12692 0.330357C0.912633 0.419642 0.769775 0.624999 0.769775 0.857142V14.2857C0.769775 14.5179 0.912633 14.7232 1.12692 14.8125C1.18942 14.8393 1.26978 14.8571 1.3412 14.8571C1.49299 14.8571 1.63585 14.7946 1.74299 14.6875L4.5287 11.9018L6.23406 15.9375C6.35906 16.2232 6.68942 16.3661 6.98406 16.2411L8.56442 15.5714C8.85013 15.4464 8.99299 15.1161 8.86799 14.8214L7.07335 10.5714H10.4841C10.7162 10.5714 10.9216 10.4286 11.0108 10.2143C11.1001 10.0089 11.0555 9.75893 10.8858 9.59821Z" fill="white"/>
</svg>
