<svg width="7" height="11" viewBox="0 0 7 11" fill="none" xmlns="http://www.w3.org/2000/svg">
<path d="M6.34899 7.66633C5.85957 7.56414 5.40955 7.37422 5.0128 7.10313C4.82042 6.967 4.54599 6.98363 4.34314 7.12795L3.18103 7.73944C2.35944 6.87524 1.95197 5.96011 1.80207 4.6405L2.80184 3.745C3.03248 3.58395 3.1859 3.30976 3.20226 3.02637C3.22677 2.45734 3.3343 1.87732 3.52202 1.30304C3.65471 0.897106 3.48165 0.508097 3.1363 0.435984L1.67473 0.130795C1.32937 0.0586819 0.940362 0.330327 0.80767 0.736258C-0.740474 5.47236 1.27837 10.0105 5.30769 10.8519C5.65305 10.924 6.04206 10.6523 6.17475 10.2464L6.73471 8.53339C6.8674 8.12746 6.69434 7.73845 6.34899 7.66633Z" fill="#FF7B5B"/>
</svg>
